<!-- Generated by IcoMoon.io -->
<svg version="1.1" xmlns="http://www.w3.org/2000/svg" width="75" height="32" viewBox="0 0 75 32">
<path fill="#f4f4fd" d="M0.999 0.080h73.431c0.555 0 1.004 0.45 1.004 1.004v29.831c0 0.555-0.45 1.004-1.004 1.004h-73.431c-0.555 0-1.004-0.45-1.004-1.004v-29.831c0-0.555 0.45-1.004 1.004-1.004z"></path>
<path fill="#2e2f42" d="M46.19 19.498l-4.844-4.879 0.537-2.648c0.139 0.054 0.286 0.082 0.435 0.084h0.004c0.684 0.008 1.245-0.54 1.253-1.224s-0.54-1.245-1.224-1.253c-0.684-0.008-1.245 0.54-1.253 1.224-0.002 0.147 0.022 0.292 0.072 0.43l-2.846 0.348-4.642-4.666c-0.057-0.058-0.135-0.091-0.216-0.092-0.080 0-0.157 0.032-0.214 0.089l-0.868 0.863c-0.119 0.119-0.119 0.313 0 0.432l0.467 0.474c-1.809 3.326-1.221 7.445 1.445 10.133 0.024 0.024 0.053 0.042 0.084 0.056-0.019 0.104-0.029 0.209-0.030 0.314v3.549h-3.672c-0.844 0.001-1.529 0.685-1.53 1.53v0.612c0 0.169 0.137 0.306 0.306 0.306h14.075c0.169 0 0.306-0.137 0.306-0.306v-0.612c-0.001-0.844-0.685-1.529-1.53-1.53h-3.672v-1.573c0.575 0.121 1.161 0.182 1.749 0.183 1.41-0.002 2.798-0.353 4.039-1.023l0.469 0.472c0.057 0.058 0.135 0.091 0.216 0.092 0.080-0 0.157-0.032 0.214-0.089l0.868-0.863c0.12-0.119 0.12-0.313 0-0.432zM41.89 10.397c0.239-0.238 0.627-0.237 0.865 0.002s0.237 0.627-0.002 0.865c-0.115 0.114-0.27 0.178-0.432 0.178h-0.002c-0.338-0.002-0.611-0.277-0.609-0.615 0.001-0.162 0.066-0.317 0.181-0.43h-0.001zM41.171 12.408l-0.344 1.69-0.674-0.678 1.017-1.011zM40.823 11.89l-1.102 1.095-0.852-0.857 1.954-0.238zM42.306 23.343c0.507 0 0.918 0.411 0.918 0.918v0.306h-13.462v-0.306c0-0.507 0.411-0.918 0.918-0.918h11.627zM38.023 22.119v0.612h-3.060v-0.612h3.060zM34.963 21.508v-2.326c0-0.742 0.686-1.346 1.53-1.346s1.53 0.604 1.53 1.346v2.326h-3.060zM38.634 20.535v-1.353c0-1.080-0.961-1.958-2.142-1.958-0.764-0.012-1.477 0.377-1.882 1.025-2.328-2.452-2.852-6.107-1.307-9.114l10.672 10.732c-1.648 0.838-3.537 1.074-5.341 0.667zM45.111 20.142l-12.080-12.151 0.433-0.432 4.552 4.578c0.002 0 0.004 0.004 0.006 0.006l7.524 7.568-0.434 0.432z"></path>
<path fill="#4d5ae5" d="M36.495 18.448h-0.003c-0.507-0.001-0.919 0.41-0.919 0.917s0.41 0.919 0.917 0.919h0.002c0.507 0.001 0.919-0.41 0.919-0.917s-0.41-0.919-0.917-0.919zM36.71 19.582c-0.058 0.057-0.136 0.089-0.217 0.089-0.169-0.001-0.305-0.139-0.304-0.308 0-0.081 0.033-0.159 0.090-0.215s0.134-0.089 0.214-0.089c0.169 0.001 0.306 0.139 0.305 0.308-0 0.081-0.033 0.159-0.090 0.215h0.003z"></path>
</svg>
